<svg width="93" height="91" viewBox="0 0 93 91" fill="none" xmlns="http://www.w3.org/2000/svg">
<path d="M18.4934 25.0876C6.4937 37.5791 -0.00625801 53.072 13.9933 66.0688C25.9938 77.2098 35.4937 84.5607 55.9936 79.563C76.4935 74.5653 84.349 64.2218 84.349 48.5594C84.3489 33.584 73.0913 30.1997 60.9934 17.5914C37.4938 -6.89968 28.2515 14.9295 18.4934 25.0876Z" fill="#92C4FF"/>
<path d="M78.0002 33.5001C78.0002 64.5001 67.0002 70 56.0002 75.5641C45.0003 81.1282 25.5002 88.4999 17.5002 75C9.72019 61.8713 18.4751 57.5782 15.0002 46.0001C10.5002 31.0065 16.6705 12.2434 31.5002 14.5001C54.5002 18 78.0002 8.32138 78.0002 33.5001Z" fill="#907AFF"/>
<g clip-path="url(#clip0_14_374)">
<path d="M41.5839 40.1793C43.2534 40.1793 44.6068 38.8259 44.6068 37.1564C44.6068 35.4869 43.2534 34.1335 41.5839 34.1335C39.9144 34.1335 38.561 35.4869 38.561 37.1564C38.561 38.8259 39.9144 40.1793 41.5839 40.1793Z" fill="white"/>
<path d="M66.3969 48.2824C64.9695 46.9389 63.1641 46.0572 61.1908 45.8053V30.4389C61.1908 28.8015 60.5191 27.332 59.4695 26.2404C58.3779 25.1488 56.9084 24.519 55.271 24.519H30.9198C29.2824 24.519 27.813 25.1908 26.7214 26.2404C25.6298 27.332 25 28.8015 25 30.4389V49.7939V51.5992V55.5038C25 57.1412 25.6718 58.6106 26.7214 59.7023C27.813 60.7939 29.2824 61.4236 30.9198 61.4236H54.4733C56.0267 62.6832 57.958 63.4809 60.0992 63.4809C62.5763 63.4809 64.8015 62.4732 66.3969 60.8778C67.9924 59.2824 69 57.0572 69 54.5801C69 52.103 67.9924 49.8778 66.3969 48.2824ZM27.2252 30.4389C27.2252 29.4313 27.645 28.5076 28.3168 27.8778C28.9886 27.2061 29.9122 26.7862 30.9198 26.7862H55.271C56.2786 26.7862 57.2023 27.2061 57.874 27.8778C58.5458 28.5496 58.9656 29.4732 58.9656 30.4809V43.5801L52.7519 37.3664C52.3321 36.9465 51.6183 36.9045 51.1565 37.3664L41.7939 46.771L35.4542 40.3893C35.0344 39.9694 34.3206 39.9274 33.8588 40.3893L27.2252 47.1068V30.4389ZM30.8779 59.2824V59.1984C29.8702 59.1984 28.9466 58.7786 28.2748 58.1068C27.645 57.4351 27.2252 56.5114 27.2252 55.5038V51.5992V50.2977L34.6565 42.8244L40.9962 49.1641C41.416 49.5839 42.1298 49.5839 42.5916 49.1641L51.9542 39.7595L58.084 45.9313C57.958 45.9732 57.8321 46.0152 57.7061 46.0572C57.5382 46.0992 57.3702 46.1412 57.1603 46.2252C56.9924 46.2671 56.8244 46.3511 56.6565 46.3931C56.5305 46.4351 56.4466 46.4771 56.3206 46.561C56.1527 46.645 56.0267 46.687 55.9008 46.771C55.6908 46.8969 55.4809 47.0229 55.271 47.1488C55.145 47.2328 55.0611 47.2748 54.9351 47.3587C54.8511 47.4007 54.8092 47.4427 54.7252 47.4847C54.3473 47.7366 54.0114 48.0305 53.7176 48.3664C52.1221 49.9618 51.1145 52.187 51.1145 54.6641C51.1145 55.2939 51.1985 55.8816 51.3244 56.5114C51.3664 56.6793 51.4084 56.8053 51.4504 56.9732C51.5763 57.3931 51.7023 57.8129 51.8702 58.2328V58.2748C52.0382 58.6106 52.2061 58.9885 52.416 59.2824H30.8779ZM64.7595 59.2824C63.542 60.5 61.9046 61.2137 60.0573 61.2137C58.2939 61.2137 56.6565 60.5 55.4809 59.3664C55.313 59.1984 55.145 58.9885 54.9771 58.8206C54.8511 58.6946 54.7252 58.5267 54.5992 58.4007C54.4313 58.1908 54.3053 57.9389 54.1794 57.687C54.0954 57.519 54.0114 57.3931 53.9275 57.2252C53.8435 57.0152 53.7595 56.7633 53.7176 56.5114C53.6756 56.3435 53.5916 56.1335 53.5496 55.9656C53.4656 55.5458 53.4237 55.0839 53.4237 54.6221C53.4237 52.7748 54.1794 51.1374 55.355 49.9198C56.5305 48.7022 58.2099 47.9885 60.0573 47.9885C61.9046 47.9885 63.542 48.7442 64.7595 49.9198C65.9771 51.1374 66.6908 52.7748 66.6908 54.6221C66.6908 56.4274 65.9351 58.0648 64.7595 59.2824Z" fill="white"/>
<path d="M60.8552 50.0878C60.7712 50.0039 60.6452 49.9199 60.4773 49.8359C60.3513 49.7939 60.2254 49.752 60.0994 49.752C60.0574 49.752 60.0574 49.752 60.0574 49.752C60.0155 49.752 60.0155 49.752 60.0155 49.752C59.8895 49.752 59.7636 49.7939 59.6376 49.8359C59.5116 49.8779 59.3857 49.9619 59.2597 50.0878L56.6567 52.6909C56.2368 53.1107 56.2368 53.8245 56.6567 54.2863C57.0765 54.7062 57.7903 54.7062 58.2521 54.2863L58.9239 53.6145V58.2329C58.9239 58.8626 59.4277 59.3665 60.0574 59.3665C60.6872 59.3665 61.191 58.8626 61.191 58.2329V53.6145L61.8628 54.2863C62.2826 54.7062 62.9964 54.7062 63.4582 54.2863C63.8781 53.8665 63.8781 53.1527 63.4582 52.6909L60.8552 50.0878Z" fill="white"/>
</g>
<defs>
<clipPath id="clip0_14_374">
<rect width="44" height="40" fill="white" transform="translate(25 24)"/>
</clipPath>
</defs>
</svg>
