<svg width="93" height="91" viewBox="0 0 93 91" fill="none" xmlns="http://www.w3.org/2000/svg">
<path d="M18.4934 25.0876C6.4937 37.5791 -0.00625658 53.072 13.9933 66.0688C25.9938 77.2098 35.4937 84.5607 55.9936 79.563C76.4935 74.5653 84.349 64.2218 84.349 48.5594C84.3489 33.584 73.0913 30.1997 60.9934 17.5914C37.4938 -6.89968 28.2515 14.9295 18.4934 25.0876Z" fill="#92C4FF"/>
<path d="M78.0002 33.5001C78.0002 64.5001 67.0002 70 56.0002 75.5641C45.0003 81.1282 25.5002 88.4999 17.5002 75C9.72019 61.8713 18.4751 57.5782 15.0002 46.0001C10.5002 31.0065 16.6705 12.2434 31.5002 14.5001C54.5002 18 78.0002 8.32138 78.0002 33.5001Z" fill="#907AFF"/>
<g clip-path="url(#clip0_14_365)">
<mask id="mask0_14_365" style="mask-type:luminance" maskUnits="userSpaceOnUse" x="25" y="27" width="42" height="42">
<path d="M67 27H25V69H67V27Z" fill="white"/>
</mask>
<g mask="url(#mask0_14_365)">
<path d="M56.8066 32.9592C57.2596 32.9592 57.6269 32.5919 57.6269 32.1389C57.6269 31.6859 57.2596 31.3186 56.8066 31.3186H56.8019C56.3489 31.3186 55.9839 31.6859 55.9839 32.1389C55.9839 32.5919 56.3536 32.9592 56.8066 32.9592Z" fill="white"/>
<path d="M61.2338 32.9592C61.6868 32.9592 62.0541 32.5919 62.0541 32.1389C62.0541 31.6859 61.6868 31.3186 61.2338 31.3186H61.2291C60.7762 31.3186 60.4111 31.6859 60.4111 32.1389C60.4111 32.5919 60.7808 32.9592 61.2338 32.9592Z" fill="white"/>
<path d="M52.3793 32.9592C52.8323 32.9592 53.1996 32.5919 53.1996 32.1389C53.1996 31.6859 52.8323 31.3186 52.3793 31.3186H52.3747C51.9217 31.3186 51.5566 31.6859 51.5566 32.1389C51.5566 32.5919 51.9263 32.9592 52.3793 32.9592Z" fill="white"/>
<path d="M30.7637 32.9592H43.0899C43.5429 32.9592 43.9102 32.5919 43.9102 32.1389C43.9102 31.6859 43.5429 31.3186 43.0899 31.3186H30.7637C30.3106 31.3186 29.9434 31.6859 29.9434 32.1389C29.9434 32.5919 30.3106 32.9592 30.7637 32.9592Z" fill="white"/>
<path d="M64.3684 27.0015H27.6317C26.1806 27.0015 25 28.182 25 29.6331V60.0079C25 61.4589 26.1806 62.6395 27.6317 62.6395H34.197C34.7205 63.4321 35.3281 64.1767 36.0155 64.8641C38.6828 67.5314 42.2287 69.0003 46 69.0003C49.7714 69.0003 53.3173 67.5314 55.9846 64.8641C56.6761 64.1725 57.2807 63.4264 57.7985 62.6395H64.3684C65.8194 62.6395 67 61.4589 67 60.0079V29.6331C67 28.182 65.8194 27.0015 64.3684 27.0015ZM27.6317 28.6421H64.3684C64.9148 28.6421 65.3594 29.0867 65.3594 29.6331V35.6398H26.6406V29.6331C26.6406 29.0867 27.0852 28.6421 27.6317 28.6421ZM64.3684 60.9989H58.7252C61.2451 55.7459 60.3323 49.2451 55.9846 44.8973C53.7742 42.687 50.9721 41.3002 47.8811 40.8869C44.8896 40.4871 41.7953 41.067 39.1679 42.5203C38.7714 42.7397 38.6278 43.2387 38.847 43.6352C39.0663 44.0316 39.5656 44.1752 39.9618 43.956C44.7996 41.2801 50.9113 42.1443 54.8244 46.0574C59.6896 50.9226 59.6896 58.8389 54.8244 63.7039C52.467 66.0613 49.3331 67.3596 46 67.3596C42.6669 67.3596 39.533 66.0613 37.1756 63.7039C33.263 59.7914 32.3989 53.6807 35.0741 48.8438C35.2934 48.4473 35.1497 47.9482 34.7533 47.7289C34.357 47.5096 33.8577 47.6532 33.6385 48.0497C32.1852 50.6771 31.6052 53.7711 32.0051 56.7618C32.2045 58.2527 32.6311 59.6762 33.2669 60.9988H27.6317C27.0852 60.9988 26.6406 60.5542 26.6406 60.0078V37.2802H65.3594V60.0078C65.3594 60.5543 64.9148 60.9989 64.3684 60.9989Z" fill="white"/>
<path d="M45.999 59.6065C46.4521 59.6065 46.8193 59.2392 46.8193 58.7862V56.8284C46.8193 56.3754 46.452 56.0081 45.999 56.0081C45.546 56.0081 45.1787 56.3754 45.1787 56.8284V58.7862C45.1787 59.2393 45.546 59.6065 45.999 59.6065Z" fill="white"/>
<path d="M45.9989 64.2826C49.8745 64.2826 53.0276 61.1294 53.0276 57.2538V54.117C53.0276 53.0557 52.2644 52.1697 51.2582 51.9778V49.8269C51.2582 47.4053 49.2879 45.4351 46.8662 45.4351H45.1316C42.7099 45.4351 40.7397 47.4053 40.7397 49.8269V51.9781C39.7333 52.1707 38.9702 53.0563 38.9702 54.117V57.2538C38.9701 61.1295 42.1232 64.2826 45.9989 64.2826ZM42.3803 49.8269C42.3803 48.3099 43.6145 47.0757 45.1316 47.0757H46.8662C48.3833 47.0757 49.6175 48.3099 49.6175 49.8269V51.9387H42.3803V49.8269ZM40.6108 54.117C40.6108 53.8255 40.8581 53.5794 41.1508 53.5794H50.8493C51.1408 53.5794 51.387 53.8255 51.387 54.117V57.2538C51.387 60.2248 48.9699 62.6419 45.9989 62.6419C43.0279 62.6419 40.6108 60.2248 40.6108 57.2538V54.117Z" fill="white"/>
<path d="M36.0156 44.8965C35.6953 45.2169 35.6953 45.7363 36.0156 46.0567C36.1758 46.2168 36.3858 46.297 36.5957 46.297C36.8056 46.297 37.0156 46.2168 37.1757 46.0567L37.178 46.0544C37.4984 45.7341 37.4972 45.2158 37.1769 44.8955C36.8565 44.5751 36.3361 44.5762 36.0156 44.8965Z" fill="white"/>
</g>
</g>
<defs>
<clipPath id="clip0_14_365">
<rect width="42" height="42" fill="white" transform="translate(25 27)"/>
</clipPath>
</defs>
</svg>
