<svg width="93" height="91" viewBox="0 0 93 91" fill="none" xmlns="http://www.w3.org/2000/svg">
<path d="M18.4934 25.0876C6.4937 37.5791 -0.00625801 53.072 13.9933 66.0688C25.9938 77.2098 35.4937 84.5607 55.9936 79.563C76.4935 74.5653 84.349 64.2218 84.349 48.5594C84.3489 33.584 73.0913 30.1997 60.9934 17.5914C37.4938 -6.89968 28.2515 14.9295 18.4934 25.0876Z" fill="#92C4FF"/>
<path d="M78.0002 33.5001C78.0002 64.5001 67.0002 70 56.0002 75.5641C45.0003 81.1282 25.5002 88.4999 17.5002 75C9.72019 61.8713 18.4751 57.5782 15.0002 46.0001C10.5002 31.0065 16.6705 12.2434 31.5002 14.5001C54.5002 18 78.0002 8.32138 78.0002 33.5001Z" fill="#907AFF"/>
<path d="M65.8748 50.0901C66.0065 49.1249 66.0762 48.1405 66.0762 47.1397C66.0762 41.1212 63.6017 35.6162 59.5742 31.668C59.5486 31.6403 59.5222 31.6143 59.4941 31.59C56.4292 28.6162 52.4781 26.5395 48.0381 25.8119C47.6798 24.2047 46.2476 23 44.5398 23C42.8302 23 41.3968 24.2047 41.0381 25.8114C38.6714 26.1979 36.4021 26.9755 34.2822 28.1303C33.7632 28.4131 33.571 29.0647 33.853 29.5851C34.0473 29.943 34.4148 30.1461 34.7946 30.1461C34.9671 30.1461 35.142 30.1041 35.3044 30.0156C37.1625 29.0035 39.1473 28.3128 41.2172 27.9561C41.7527 29.2695 43.0401 30.1977 44.5398 30.1977C46.0378 30.1977 47.3235 29.2699 47.8589 27.9565C50.8185 28.468 53.533 29.6467 55.8556 31.3256H51.7672C49.5643 31.3256 47.7721 33.1237 47.7721 35.3338C47.7721 37.5423 49.5643 39.3391 51.7672 39.3391C52.7886 39.3391 53.619 40.1749 53.619 41.2017C53.619 42.229 52.7886 43.0644 51.7672 43.0644H51.1483C48.947 43.0644 47.1561 44.8612 47.1561 47.0701C47.1561 49.2802 48.947 51.0782 51.1483 51.0782H63.5367C61.7176 59.9322 53.8909 66.6095 44.5398 66.6095C40.2798 66.6095 36.3367 65.2231 33.1333 62.8779H37.233C39.436 62.8779 41.2282 61.0802 41.2282 58.8697C41.2282 56.6612 39.436 54.8645 37.233 54.8645C36.2116 54.8645 35.3812 54.029 35.3812 53.0018C35.3812 51.9762 36.2116 51.142 37.233 51.142H37.849C40.052 51.142 41.8441 49.344 41.8441 47.1339C41.8441 44.9233 40.052 43.1253 37.849 43.1253H25.5492C26.1492 40.2337 27.4022 37.5246 29.2586 35.145C29.6224 34.6784 29.5401 34.004 29.0744 33.639C28.609 33.2739 27.9364 33.3566 27.5721 33.8236C24.5811 37.6585 23 42.2634 23 47.1397C23 53.1197 25.4329 58.5403 29.3572 62.4574C29.4193 62.538 29.4919 62.6093 29.5741 62.6697C33.4522 66.4345 38.7306 68.755 44.5398 68.755C55.3701 68.755 64.357 60.6896 65.855 50.2289C65.8647 50.1836 65.871 50.1375 65.8748 50.0901ZM25.2282 45.2712H37.849C38.8716 45.2712 39.7037 46.1066 39.7037 47.1339C39.7037 48.1607 38.8716 48.9965 37.849 48.9965H37.233C35.0317 48.9965 33.2407 50.7929 33.2407 53.0018C33.2407 55.2119 35.0317 57.01 37.233 57.01C38.2556 57.01 39.0877 57.8441 39.0877 58.8697C39.0877 59.8965 38.2556 60.7324 37.233 60.7324H30.6651C27.249 57.221 25.1405 52.4231 25.1405 47.1397C25.1405 46.5111 25.1707 45.888 25.2282 45.2712ZM44.5398 28.0518C43.7408 28.0518 43.0913 27.3993 43.0913 26.5974C43.0913 25.7968 43.7408 25.1455 44.5398 25.1455C45.3366 25.1455 45.9849 25.7968 45.9849 26.5974C45.9849 27.3993 45.3366 28.0518 44.5398 28.0518ZM51.1483 48.9323C50.127 48.9323 49.2965 48.0969 49.2965 47.0697C49.2965 46.0445 50.127 45.2099 51.1483 45.2099H51.7672C53.9686 45.2099 55.7595 43.4119 55.7595 41.2017C55.7595 38.9916 53.9686 37.1936 51.7672 37.1936C50.7446 37.1936 49.9125 36.3594 49.9125 35.3338C49.9125 34.3066 50.7446 33.4711 51.7672 33.4711H58.3477C61.8166 37.0064 63.9357 41.853 63.9357 47.1397C63.9357 47.744 63.9068 48.3419 63.8526 48.9323H51.1483Z" fill="white"/>
<path d="M31.0713 32.1579C31.2769 32.1579 31.485 32.0987 31.6688 31.9745L31.6868 31.9623C32.177 31.6313 32.3062 30.9645 31.9755 30.4731C31.6453 29.9818 30.9802 29.8521 30.4901 30.1836L30.4721 30.1958C29.9819 30.5268 29.8527 31.194 30.1829 31.685C30.3898 31.9921 30.7272 32.1579 31.0713 32.1579Z" fill="white"/>
</svg>
